<?xml version="1.0" encoding="UTF-8"?>
<svg id="layer" xmlns="http://www.w3.org/2000/svg" viewBox="0 0 600 70.4">
  <path d="M570,12.2h.4c.9,4.4,1.3,6.4,2.3,9.7l5.5,21.8h-16.2l5.5-21.8c.9-3.3,1.5-5.3,2.5-9.7M584.7,69.4h15.3L580.8,1.4h-20.8l-19.3,68h14.4l4.3-15.2h20.9l4.4,15.2ZM507.7,70.4c8.4,0,16.5-2,21.7-4.2v-34.1h-23.4v10.9h9.6v15.2c-1.8,1.1-4.7,1.8-8,1.8-10,0-13.1-5-13.1-19.4v-8.8c0-14.3,3-21.3,12.2-21.3,6.4,0,8.5,4.3,8.6,8.9h14.4c-.2-12-8.8-19.4-23.1-19.4-20,0-27.3,11.6-27.3,30.3v10c0,20.4,6.8,30.1,28.4,30.1M440.1,12.2h.4c1,4.4,1.3,6.4,2.3,9.7l5.5,21.8h-16.2l5.5-21.8c.9-3.3,1.4-5.3,2.5-9.7M454.8,69.4h15.2L450.9,1.4h-20.8l-19.3,68h14.4l4.3-15.2h20.9l4.4,15.2ZM382,69.4h14.5V1.4h-14.5v68ZM342.3,70.4c16.1,0,23.9-7.4,24.3-21.3h-14.6c-.3,6.7-2.4,10.9-9.3,10.9-7.8,0-10.8-5.5-10.8-19.7v-10c0-14.3,3-19.7,10.8-19.7,7.3,0,8.5,4.9,8.8,10h14.5c-.1-11.9-6.9-20.4-23.7-20.4-18.8,0-25.6,11.7-25.6,30.1v10c0,18.5,6.8,30.1,25.6,30.1M244.6,69.4h12.8V29.9c0-5.9-.2-11.9-.5-17.8h.4c2,7,3.1,10.6,5,15.9l15,41.4h21V1.4h-12.8v37.9c0,5,.1,11.6.3,17.9h-.4c-1.1-4.7-2-9.4-4.9-17.1l-14-38.7h-22v68h.1ZM185.8,69.4h39.3v-10.9h-24.8v-18.9h22.5v-11h-22.5V12.2h23.9V1.3h-38.3v68.1h-.1ZM133,69.4h37.8v-10.9h-23.3V1.4h-14.5v68ZM88.2,12.2h.4c.9,4.4,1.3,6.4,2.3,9.7l5.5,21.8h-16.2l5.5-21.8c.9-3.3,1.5-5.3,2.5-9.7M103,69.4h15.2L99,1.4h-20.8l-19.3,68h14.4l4.3-15.2h20.9l4.5,15.2ZM14.6,59.1v-19.8h8.8c7.4,0,10.9,3.4,10.9,10,0,7.3-4.6,10-11.2,10h-8.5s0-.2,0-.2ZM14.6,28.9V11.8h9c6.6,0,9.4,3,9.4,8.5s-3.2,8.6-9.3,8.6h-9.1ZM.1,69.4h25.5c14.3,0,23.1-5.1,23.1-19.3,0-9-5.3-15.2-15-16.2v-.3c8.6-1.5,13.8-6.2,13.8-15.2,0-11.7-6.7-17-21.2-17H0v68h.1Z"/>
</svg>