<?xml version="1.0" encoding="UTF-8"?>
<svg id="Layer_1" data-name="Layer 1" xmlns="http://www.w3.org/2000/svg" viewBox="0 0 659.76 202.45">
  <path d="M424.26.62c18.09,2.15,26.54,18.23,24.24,35.24-1.37,10.15-4.65,11.58-11.1,17.67-.85.8-.9.7-.64,2.08,29.89,2.76,29.66,45.92,5.68,57.19-1.97.93-10.55,3.82-12.18,3.82h-59.5V.62c16.89,1.46,37-1.96,53.5,0ZM400.76,23.62v21.5c7.31,3.61,20.01.18,20.09-9.99.08-11.39-11.25-12.18-20.09-11.51ZM400.76,93.62h14.5c.45,0,7.32-2.33,8.2-2.8,5.47-2.88,6.78-9.4,4.54-14.94-3.13-7.75-20.22-7.38-27.24-7.26v25Z"/>
  <path d="M329.76,116.62v-7c-25.78,23.21-62.33,3.82-64.04-29.45-1.86-36.24,34.79-58.8,64.03-35.55v-7h28.01v79h-28ZM308.49,59.86c-20.03,3.71-17.29,37.28,5.62,35.7,24.48-1.69,21.09-40.64-5.62-35.7Z"/>
  <polygon points="585.26 37.62 607.74 77.62 628.26 37.62 659.76 37.62 596.76 156.62 564.76 156.62 591.38 106.12 553.76 37.62 585.26 37.62"/>
  <polygon points="198.26 37.62 220.25 77.63 239.76 37.62 272.76 37.62 208.26 156.62 177.76 156.62 203.75 106.2 165.76 37.62 198.26 37.62"/>
  <path d="M119.55,34.92c70.55-6.99,73.94,92.62-3.17,84.58-50.42-5.26-52.74-79.05,3.17-84.58ZM125.42,59c-7.25.15-15.69,6.44-17.21,13.57-4.31,20.2,20.54,31.77,32.56,14.57,8.25-11.8-1.54-28.42-15.35-28.13Z"/>
  <path d="M130.39,142.69c6.16,4.77,11.69,10.24,18.23,14.56,45.98,30.34,106.91,24.11,145.77-14.56l18.29,18.29c-44.69,46.14-118.27,54.48-173.24,21.45-4.05-2.43-27.25-18.55-26.62-22.17l17.56-17.56Z"/>
  <path d="M68.76.62v86.5c0,5.59-3.59,14.49-7.02,18.98-15.14,19.74-49.14,19.39-61.73-2.99l19.26-19.48c.71-.33,2.64,10.55,10.07,10.98,3.45.2,8.42-4.46,8.42-7.49V26.62H4.76V.62h64Z"/>
  <path d="M493.76,37.62v48.5c0,.4,2.78,6.6,3.31,7.2,4.72,5.38,19.28,5.13,23.11-1.78,6.12-11.04.68-40.69,2.58-53.92h28v50.5c0,1.51-1.22,8.42-1.68,10.32-6.53,26.89-61.99,27.46-76.74,10.11-2.04-2.4-6.58-11.65-6.58-14.42v-56.5h28Z"/>
</svg>