<?xml version="1.0" encoding="utf-8"?>
<!-- Generator: Adobe Illustrator 21.1.0, SVG Export Plug-In . SVG Version: 6.00 Build 0)  -->
<svg version="1.1" id="Layer_1" xmlns="http://www.w3.org/2000/svg" xmlns:xlink="http://www.w3.org/1999/xlink" x="0px" y="0px"
	 viewBox="0 0 1036.7 188" style="enable-background:new 0 0 1036.7 188;" xml:space="preserve">
<g>
	<path d="M1003.6,94L1003.6,94c-3.9-3.3-8.5-6-13.4-8.4c-9.9-4.7-20.1-8.8-30-13.6c-10.8-5.2-14.6-15.9-9.9-26.4
		c3.3-7.5,9.6-11,17.7-9.9c7,0.9,11.5,5.9,12.5,14.1c0.4,2.9,0.7,5.9,1,9h30.6c2.9-21.6-6.7-39.6-25.9-45.3
		c-1.5-0.4-3.1-0.9-4.6-1.2c-3.6-0.8-7.7-1.2-12.2-1.5c-1.8-0.1-3.6-0.2-5.3-0.2c-5.3,0-10.3,0.6-15,1.7
		c-23.2,7.7-31.3,17.7-33,41.5c-1.2,16.9,3.4,30.7,15.2,40.3h0c3.9,3.3,8.5,6,13.5,8.4c9.9,4.7,20.1,8.8,30,13.6
		c10.8,5.2,14.6,15.9,9.9,26.4c-3.3,7.5-9.6,11-17.7,9.9c-7-0.9-11.5-5.9-12.5-14.1c-0.4-2.9-0.7-5.9-1-9h-30.6
		c-2.9,21.6,6.7,39.6,25.9,45.3c1.5,0.4,3.1,0.9,4.6,1.2c3.6,0.8,7.7,1.2,12.2,1.5c1.8,0.1,3.6,0.2,5.3,0.2c5.3,0,10.3-0.6,15-1.7
		c23.2-7.7,31.3-17.7,33-41.5C1020,117.4,1015.4,103.6,1003.6,94z"/>
	<path d="M17.7,13.5c11.5,0,22.9,0,35,0c6.9,37.3,13.8,74.4,20.7,111.5c0.3,0,0.6,0,1,0C81.1,88,88,51,94.9,13.7c11.6,0,23,0,35.3,0
		c-11.9,53.7-23.7,107.2-35.5,160.8c-14,0-27.6,0-41.7,0c-2.5-11-5-22-7.4-33C36.8,101.7,28,61.9,19.2,22.2c-0.4-1.6-1-3.1-1.6-4.6
		C17.7,16.2,17.7,14.9,17.7,13.5z"/>
	<path d="M527.7,174.5c-8.4,0-16.4,0-25.2,0c-8.3-38.3-16.6-76.7-25-115.1c-0.3,0-0.6,0.1-0.9,0.1c0,38.2,0,76.4,0,114.9
		c-10.2,0-20,0-30,0c0-53.7,0-107.1,0-160.8c15.8,0,31.4,0,47.5,0c6.9,35.4,13.7,70.7,20.6,106.1c0.2,0,0.5,0,0.7,0
		c6.8-35.3,13.7-70.5,20.6-106.1c15.8,0,31.4,0,47.4,0c0,53.4,0,106.9,0,160.8c-9.9,0-19.6,0-29.7,0c0-38.7,0-77.1,0-115.6
		c-0.3,0-0.7-0.1-1-0.1C544.4,97.3,536.1,135.8,527.7,174.5z"/>
	<path d="M724.8,174.5c-10.3,0-19.9,0-29.9,0c0-53.6,0-106.9,0-160.8c12.1,0,24.3,0,37.4,0c11.4,33.1,22.9,66.6,34.4,100.2
		c0.4-0.1,0.7-0.1,1.1-0.2c0-33.2,0-66.4,0-100c10.3,0,20,0,30.2,0c0,53.5,0,107,0,160.8c-12.2,0-24.1,0-36.6,0
		c-11.9-35-23.9-70-35.8-105c-0.3,0.1-0.5,0.1-0.8,0.2C724.8,104.4,724.8,139.2,724.8,174.5z"/>
	<path d="M431.5,77.1c0,9.8,0,18.6,0,28.1c-17,0-33.8,0-51,0c0,13.9,0,27.1,0,40.9c18.5,0,36.9,0,55.8,0c0,9.6,0,18.6,0,28.2
		c-29.4,0-59,0-89,0c0-53.5,0-107,0-160.7c29.1,0,57.9,0,87.1,0c0,9.2,0,18.2,0,27.9c-17.8,0-35.6,0-53.8,0c0,12.1,0,23.6,0,35.7
		C397.6,77.1,414.3,77.1,431.5,77.1z"/>
	<path d="M170.2,77.3c17.1,0,33.7,0,50.6,0c0,9.4,0,18.3,0,28.1c-17,0-33.7,0-50.7,0c0,13.9,0,27,0,40.8c18.6,0,37.1,0,56,0
		c0,9.8,0,18.8,0,28.2c-29.9,0-59.4,0-89.3,0c0-53.7,0-107.1,0-160.8c29.1,0,58,0,87.3,0c0,9.3,0,18.3,0,28c-18.1,0-35.9,0-53.9,0
		C170.2,53.6,170.2,65,170.2,77.3z"/>
	<path d="M629.2,146.3c18.5,0,36.8,0,55.4,0c0,9.5,0,18.6,0,28.1c-29.5,0-59.1,0-88.9,0c0-53.6,0-107,0-160.7c28.9,0,57.6,0,86.9,0
		c0,9,0,18,0,27.8c-17.6,0-35.3,0-53.5,0c0,12.1,0,23.5,0,35.6c16.8,0,33.5,0,50.5,0c0,9.6,0,18.5,0,28.1c-16.7,0-33.3,0-50.4,0
		C629.2,119,629.2,132.2,629.2,146.3z"/>
	<path d="M302.8,174.5c-11.6,0-22.1,0-33.2,0c0-44.2,0-88.1,0-132.7c-11.4,0-22.2,0-33.5,0c0-9.8,0-18.8,0-28.2
		c33.2,0,66.1,0,99.4,0c0,9.2,0,18.3,0,28c-10.8,0-21.4,0-32.6,0C302.8,86.1,302.8,130,302.8,174.5z"/>
	<path d="M809.9,41.6c0-9.9,0-18.8,0-28c33.2,0,66.1,0,99.4,0c0,9.2,0,18.2,0,27.9c-10.8,0-21.3,0-32.7,0c0,44.7,0,88.7,0,132.9
		c-11.4,0-22,0-33.3,0c0-44.3,0-88.3,0-132.8C831.8,41.6,821.1,41.6,809.9,41.6z"/>
</g>
</svg>
