<?xml version="1.0" encoding="UTF-8"?>
<svg id="Layer_1" data-name="Layer 1" xmlns="http://www.w3.org/2000/svg" viewBox="0 0 498.63 733">
  <defs>
    <style>
      .cls-1 {
        fill: #231f20;
      }
    </style>
  </defs>
  <path class="cls-1" d="M226.42,290.17c-6.88,6.85-12.95,17.39-20.91,18.67l.03.02c-15.51,2.42-28.54,8.96-49.17-10.28-2.61-2.42-9.24-3.83-4.61-7.27s12.87-1.14,19.75-1.14c-1.89,6.69,1.94,12.48,6.9,12.7,16.56.75,29.35-17.36,48.01-12.7h0Z"/>
  <path class="cls-1" d="M470.7,427.26c-.36-5.46,15.06-20.94,13.51-26.32-10.62-36.66,5.85-65.37-1.77-101.42-.89-4.11,4.35-8.77,11.95-9.4-8.02.22-12.62-2.06-12.62-6.85s5.96-8.74,12.62-6.88c-5.63-53.56-29.68-102.98-53.97-147.85-22.69-41.91-49.29-92.58-98.21-109.89-24.21-8.57-52.36-22.13-73.19-17.83-44.98,9.21-90.36-.05-131.54,28.62-29.32,20.42-46.04,44.54-63.35,74.5-2.58,4.43-8.98-1.22-12.31-6.02.58,22.1-5.33,32.81-20.61,48.06l-.02-.05c-4.66,4.68-10.88,8.51-12.85,14.06-11.03,31.23,6.24,59.82-28.34,75.21,18.5,13.04,8.63,33.03,1.86,48.84-.97,2.08,9.57,7.63,10.65,13.18,5.77,28.98-10.35,56.02-8.54,81.87,3.82,54.94,7.15,109.52,21.66,165.52.86,3.27-7.3,8.68-11.87,13.25,4.83,4.28,9.33,8.92,13.47,13.87,8.6,11.34-18.55,22.3.28,34.11,38,23.88,51.78,66.98,89.92,88.09,5.63,3.05,15.22-2.28,20.08-2.5,25.79-1.22,42.76,29.01,68.5,38.02-1.86-6.68,2.05-10.4,6.88-13.73,19.08,29.4,50.53,11.1,76.41,16.65,24.82,5.43,19.21-30.43,47.45-35.78,4.19-.81,8.01,6.27,6.6,12.31,4.46-8.68.55-17.75,7.1-23.1,65.73-53.83,146.46-101.56,148.18-183.05.36-16.75-26.73-49.09-27.93-75.49ZM109.11,309.86c-2.19-1.85-4.28-3.82-6.24-5.9v.02c-22.25-19.3-16.12-30.42-6.83-41.26,10.6,14.11,36.11,29.5,13.07,47.14h0ZM178.44,393.18c-8.37,1.41-15.81,1.63-20.6-6.91,16.39-8.51,43.15-19.58,45.34.31,1.19,10.73-15.11,4.99-24.74,6.6ZM260.7,329.97c-10.18.89-8.32-19.41-20.38-18.3-10.46.91-3.61,23.04-20.69,19.69,4.52,17.77-3.97,29.62-20.83,33.28-30.9,6.71-71.17.16-68.51-25.74,1.84-17.83-1.94-44.12,13.73-62.57,12.1-14.25,28.93-27.48,42.08-29.73,42.77-7.29,57.33,47.35,88.47,71.03-4.58,4.57-8.88,11.9-13.87,12.34h0ZM293.9,203.78c-47.57,14.75-97.9,3.72-150.6,13.31-12.37,2.25-37.33,12.04-46.42-9.68-2.45-5.88-3.17-15.61.33-19.05h-.17c11.21-10.98,16.86-24.3,26.29-35.53,2.31,2.3,4.61,6.08,6.85,6.08,10.88-.36,4.8-21.28,12.82-17.7,42.74,19.11,83.17-16.81,123.16,1,24.97,11.09,75.3,46.82,27.74,61.57Z"/>
</svg>